# xmcd CD database file generated by MAGIX-FreeDB- v3.0beta1
#
# Track frame offsets:
#	150
#	19955
#	32914
#	48239
#	65273
#	80098
#	94127
#	110294
#	123576
#	137588
#	155125
#	173159
#	188056
#	199356
#	213352
#	229378
#	245643
#	260373
#	279341
#	298003
#	313518
#	331074
#
# Disc length: 4599
#
# Revision: 17
# Processed by: cddbd v1.5.2PL0 Copyright (c) Steve Scherf et al.
# Submitted via: MAGIX-FreeDB- v3.0beta1
#
DISCID=4711f516
DTITLE=Various Artist - Bravo Hits 100 - CD 1
DYEAR=2018
DGENRE=Pop
TTITLE0=Ed Sheeran - Perfect
TTITLE1=Luis Fonsi - Échame La Culpa (& Demi Lovato)
TTITLE2=Bausa - Was du Liebe nennst
TTITLE3=Camila Cabello - Never Be The Same
TTITLE4=Selena Gomez - Wolves (feat. Marshmello)
TTITLE5=Big Shaq - Man's Not Hot
TTITLE6=Craig David - I Know You (feat. Bastille)
TTITLE7=Mike Singer - Flashbacks
TTITLE8=Michael Patrick Kelly - Roundabouts
TTITLE9=The Night Game - Once In A Lifetime
TTITLE10=Maître Gims - Caméléon
TTITLE11=Rin - Data Love
TTITLE12=Eno - Wäwä
TTITLE13=Leland - Mattress
TTITLE14=Hugo Helmig - Please Don't Lie
TTITLE15=Dua Lipa - IDGAF
TTITLE16=Nano - Hold On
TTITLE17=Pink - Beautiful Trauma
TTITLE18=Die Toten Hosen - Alles passiert
TTITLE19=Lea - Leiser
TTITLE20=James Arthur - Naked
TTITLE21=Tom Walker - Leave A Light On
EXTD=YEAR: 2018
EXTT0=YEAR: 2018
EXTT1=YEAR: 2018
EXTT2=YEAR: 2018
EXTT3=YEAR: 2018
EXTT4=YEAR: 2018
EXTT5=YEAR: 2018
EXTT6=YEAR: 2018
EXTT7=YEAR: 2018
EXTT8=YEAR: 2018
EXTT9=YEAR: 2018
EXTT10=YEAR: 2018
EXTT11=YEAR: 2018
EXTT12=YEAR: 2018
EXTT13=YEAR: 2018
EXTT14=YEAR: 2018
EXTT15=YEAR: 2018
EXTT16=YEAR: 2018
EXTT17=YEAR: 2018
EXTT18=YEAR: 2018
EXTT19=YEAR: 2018
EXTT20=YEAR: 2018
EXTT21=YEAR: 2018
PLAYORDER=
